<svg xmlns="http://www.w3.org/2000/svg" version="1.1" height="200px" width="400px"> <g fill="#0084ac">
  <path x="0" y="0" d="M371.51862,41.26064L372.30851,41.34043L373.09043,41.5L373.85638,41.73138L374.59043,42.03457L375.30053,42.4016L375.97074,42.84043L376.59309,43.33511L377.17553,43.88564L377.70213,44.47606L378.18883,45.11436L378.6117,45.79255L378.9867,46.49468L379.30585,47.22872L379.56117,47.97872L379.76064,48.76064L379.89628,49.54255L379.97606,50.33245L380,51.07447L380,149.26862L379.94415,150.06649L379.84043,150.8484L379.66489,151.6383L379.44149,152.39628L379.15426,153.14628L378.80319,153.86436L378.40426,154.55053L377.94947,155.21277L377.44681,155.82713L376.8883,156.4016L376.28191,156.92021L375.63564,157.38298L374.94947,157.78989L374.2234,158.13298L373.4734,158.39628L372.69947,158.58777L371.91755,158.70745L371.1117,158.74734L28.8883,158.74734L28.08245,158.70745L27.30053,158.58777L26.5266,158.39628L25.76862,158.125L25.05053,157.78989L24.36436,157.38298L23.71809,156.92021L23.1117,156.4016L22.55319,155.82713L22.05053,155.21277L21.58777,154.55053L21.19681,153.86436L20.84574,153.1383L20.55851,152.39628L20.33511,151.63032L20.15957,150.8484L20.05585,150.06649L20,149.26064L20,51.07447L20.02394,50.33245L20.10372,49.54255L20.23936,48.75266L20.43883,47.97872L20.69415,47.22872L21.0133,46.49468L21.3883,45.78457L21.81117,45.11436L22.29787,44.47606L22.82447,43.87766L23.40691,43.33511L24.03723,42.84043L24.69947,42.4016L25.40957,42.03457L26.14362,41.73138L26.90957,41.5L27.69149,41.34043L28.48936,41.26064L29.05585,41.25266L370.94415,41.25266z M36.57979,48.91223L35.98936,48.92021L35.19149,48.96809L34.40957,49.09574L33.62766,49.30319L32.88564,49.57447L32.15957,49.91755L31.48138,50.32447L30.83511,50.79521L30.2367,51.32979L29.69415,51.91223L29.19947,52.54255L28.7766,53.21277L28.40957,53.92287L28.11436,54.66489L27.89096,55.43085L27.74734,56.21277L27.66755,57.01064L27.65957,57.7766L27.65957,142.39894L27.68351,143.17287L27.77128,143.96277L27.93883,144.74468L28.17819,145.50266L28.48936,146.2367L28.86436,146.93883L29.30319,147.60106L29.80585,148.2234L30.36436,148.79787L30.97074,149.31649L31.625,149.77128L32.31915,150.16223L33.05319,150.48936L33.80319,150.75266L34.58511,150.93617L35.36702,151.04787L36.17287,151.08777L363.42021,151.08777L364.01064,151.07979L364.80851,151.03191L365.59043,150.90426L366.37234,150.69681L367.11436,150.42553L367.84043,150.08245L368.51862,149.67553L369.16489,149.20479L369.7633,148.67021L370.30585,148.08777L370.80053,147.45745L371.2234,146.78723L371.59043,146.07713L371.88564,145.33511L372.10904,144.56915L372.25266,143.78723L372.33245,142.98936L372.34043,142.2234L372.34043,57.60106L372.31649,56.82713L372.22872,56.03723L372.06117,55.25532L371.82181,54.49734L371.51064,53.7633L371.13564,53.06117L370.69681,52.39894L370.19415,51.7766L369.63564,51.20213L369.02926,50.68351L368.375,50.22872L367.68085,49.83777L366.94681,49.51064L366.19681,49.24734L365.41489,49.06383L364.63298,48.95213L363.82713,48.91223z"></path>
  <path x="0" y="0" d="M348.16968,54.05691L348.8734,54.15745L349.57713,54.32261L350.25213,54.55957L350.91277,54.85399L351.5375,55.20585L352.12633,55.61516L352.67207,56.08191L353.17473,56.59894L353.62713,57.15904L354.02207,57.75505L354.35957,58.38697L354.63963,59.04761L354.85505,59.72979L355.00585,60.43351L355.08484,61.14441L355.10638,61.84096L355.10638,138.00106L355.0992,138.69043L355.02739,139.40851L354.89814,140.11223L354.69707,140.8016L354.43138,141.46941L354.10106,142.10851L353.72048,142.7117L353.27527,143.27899L352.78697,143.80319L352.2484,144.28431L351.66676,144.70798L351.05638,145.0742L350.40293,145.38298L349.73511,145.62713L349.03138,145.81383L348.32766,145.92872L347.60957,145.97181L347.07819,145.97899L52.55559,145.97899L51.83032,145.94309L51.1266,145.84255L50.42287,145.67739L49.74787,145.44043L49.08723,145.14601L48.4625,144.79415L47.87367,144.38484L47.32793,143.91809L46.82527,143.40106L46.37287,142.84096L45.97793,142.24495L45.64043,141.61303L45.36037,140.95239L45.14495,140.27021L44.99415,139.56649L44.91516,138.85559L44.89362,138.15904L44.89362,61.99894L44.9008,61.30957L44.97261,60.59149L45.10186,59.88777L45.30293,59.1984L45.56862,58.53059L45.89894,57.89149L46.27952,57.2883L46.72473,56.72101L47.21303,56.19681L47.7516,55.71569L48.33324,55.29202L48.94362,54.9258L49.59707,54.61702L50.26489,54.37287L50.96862,54.18617L51.67234,54.07128L52.39043,54.02819L52.92181,54.02101L347.44441,54.02101z M101.76596,61.69016L101.04069,61.7117L100.32261,61.74043L99.6117,61.78351L98.90798,61.83378L98.18271,61.90559L97.46463,61.98457L96.7609,62.07793L96.05718,62.18564L95.35346,62.30771L94.64255,62.45133L93.93883,62.60213L93.24229,62.77447L92.56011,62.95399L91.86356,63.15505L91.18138,63.37766L90.4992,63.60745L89.83138,63.85878L89.17074,64.12447L88.50293,64.40452L87.85665,64.70612L87.21037,65.02207L86.57846,65.35239L85.95372,65.70426L85.33617,66.07048L84.7258,66.45106L84.12979,66.84601L83.54814,67.2625L82.97367,67.68617L82.40638,68.13138L81.85346,68.59096L81.31489,69.05771L80.78351,69.53883L80.26649,70.04149L79.76383,70.55133L79.26835,71.08271L78.78723,71.6141L78.3133,72.15984L77.8609,72.71277L77.42287,73.27287L76.99202,73.85452L76.57553,74.43617L76.1734,75.03218L75.79282,75.63537L75.41941,76.24574L75.06037,76.87048L74.71569,77.49521L74.38537,78.13431L74.0766,78.78059L73.775,79.42686L73.49495,80.0875L73.22207,80.75532L72.97074,81.43032L72.73378,82.09814L72.50399,82.78032L72.29574,83.46968L72.10186,84.16622L71.92234,84.8484L71.75718,85.54495L71.5992,86.24867L71.45559,86.95957L71.33351,87.6633L71.21862,88.35984L71.11809,89.07074L71.03191,89.78883L70.95293,90.50691L70.8883,91.21782L70.83803,91.92154L70.79495,92.63963L70.76622,93.36489L70.74468,94.09016L70.76622,94.82261L70.79495,95.54787L70.83085,96.25878L70.88112,96.96968L70.94574,97.6734L71.02473,98.39867L71.1109,99.11676L71.21144,99.82048L71.31915,100.5242L71.4484,101.22793L71.58484,101.93883L71.73564,102.64255L71.9008,103.3391L72.08032,104.02128L72.2742,104.71782L72.48963,105.40718L72.71223,106.08936L72.9492,106.76436L73.20053,107.43218L73.46622,108.1L73.74628,108.76064L74.04787,109.4141L74.35665,110.05319L74.68697,110.69229L75.02447,111.3242L75.38351,111.94894L75.75691,112.55931L76.1375,113.1625L76.53963,113.75851L76.94894,114.34734L77.37979,114.92181L77.81782,115.4891L78.27021,116.04202L78.73697,116.58777L79.21809,117.11915L79.71356,117.65053L80.2234,118.16037L80.74043,118.66303L81.26463,119.15133L81.79601,119.61809L82.35612,120.07766L82.91622,120.52287L83.49069,120.95372L84.07234,121.36303L84.66835,121.76516L85.27872,122.14574L85.89628,122.51197L86.52101,122.86383L87.15293,123.20133L87.79202,123.51729L88.44548,123.81888L89.10612,124.10612L89.77394,124.37181L90.43457,124.62314L91.11676,124.85293L91.79894,125.07553L92.49548,125.2766L93.17766,125.4633L93.8742,125.63564L94.57074,125.78644L95.28165,125.93005L95.99255,126.05213L96.6891,126.16702L97.4,126.26037L98.11809,126.34654L98.84335,126.41117L99.54707,126.46862L100.25798,126.5117L100.96888,126.54043L101.69415,126.56197L102.4266,126.56915L103.18059,126.56197L103.91303,126.54761L104.62394,126.51888L105.29894,126.48298L106.04574,126.42553L106.77819,126.35372L107.46755,126.26755L108.03484,126.38963L108.46569,126.91383L108.88936,127.43085L109.41356,128.06995L109.83723,128.57979L110.28245,129.13271L110.76356,129.70718L111.23032,130.28165L111.67553,130.82739L112.13511,131.38032L112.59468,131.94761L113.06144,132.51489L113.98059,133.63511L114.43298,134.18085L114.89255,134.74814L115.37367,135.32979L115.82606,135.88271L116.24255,136.39255L116.76676,137.02447L117.20479,137.55585L117.62846,138.08005L118.15266,138.30984L127.53803,138.30984L127.94016,138.03697L127.45186,137.4984L126.98511,136.9742L126.51117,136.44282L126.01569,135.88271L125.57766,135.39441L125.1109,134.87739L124.61543,134.32447L124.10559,133.75L123.63165,133.2258L123.15771,132.69441L122.19548,131.61729L121.21888,130.5258L120.73059,129.98723L120.25665,129.44867L119.78271,128.92447L119.29441,128.37872L118.79176,127.81144L118.30346,127.27287L117.85106,126.76303L117.39149,126.24601L116.91037,125.71463L116.42207,125.1617L115.94096,124.62314L115.65372,124.04149L116.3,123.76144L116.96064,123.45984L117.60691,123.14388L118.24601,122.81356L118.87074,122.47606L119.48112,122.11702L120.09149,121.74362L120.70186,121.34867L121.29069,120.93936L121.87234,120.52287L122.43963,120.08484L122.99255,119.63245L123.5383,119.17287L124.06968,118.69176L124.59388,118.20346L125.09654,117.69362L125.59202,117.1766L126.08032,116.63803L126.54707,116.09229L126.99947,115.54654L127.43032,114.98644L127.86117,114.41197L128.27766,113.82314L128.67979,113.21995L129.07473,112.60239L129.44814,111.99202L129.80718,111.37447L130.14468,110.74255L130.475,110.10346L130.79096,109.45718L131.09973,108.8109L131.37979,108.15027L131.65266,107.49681L131.91117,106.82899L132.14814,106.15399L132.37793,105.47181L132.59335,104.78245L132.79441,104.0859L132.98112,103.40372L133.14628,102.71436L133.30426,102.01782L133.44787,101.3141L133.57713,100.60319L133.6992,99.88511L133.79973,99.16702L133.89309,98.47048L133.96489,97.76676L134.02952,97.06303L134.08697,96.34495L134.13005,95.61968L134.15878,94.89441L134.18032,94.16197L134.15878,93.42952L134.13005,92.70426L134.08697,91.98617L134.0367,91.28245L133.97926,90.57872L133.90027,89.85346L133.8141,89.13537L133.71356,88.42447L133.59867,87.72793L133.4766,87.0242L133.34016,86.3133L133.18218,85.60957L133.01702,84.91303L132.8375,84.22367L132.64362,83.53431L132.43537,82.84495L132.21277,82.16277L131.9758,81.48777L131.72447,80.81995L131.45878,80.15213L131.17154,79.49149L130.87713,78.83803L130.56835,78.19894L130.23803,77.55266L129.89335,76.92793L129.54149,76.30319L129.16809,75.69282L128.78032,75.08245L128.38537,74.49362L127.96888,73.90479L127.53803,73.33032L127.1,72.76303L126.64761,72.21011L126.18085,71.66436L125.69973,71.1258L125.20426,70.6016L124.7016,70.08457L124.18457,69.5891L123.66037,69.1008L123.12181,68.63404L122.56888,68.17447L122.0016,67.72926L121.42713,67.2984L120.84548,66.8891L120.24947,66.48697L119.64628,66.10638L119.02872,65.74016L118.40399,65.3883L117.76489,65.0508L117.1258,64.73484L116.47952,64.43324L115.81888,64.14601L115.15106,63.88032L114.48324,63.62899L113.80824,63.3992L113.11888,63.1766L112.42234,62.97553L111.74016,62.78883L111.0508,62.61649L110.34707,62.46569L109.63617,62.32207L108.93245,62.2L108.22872,62.08511L107.525,61.99176L106.80691,61.91277L106.08165,61.84096L105.37074,61.78351L104.66702,61.74043L103.94894,61.7117L103.22367,61.69016z M243.08511,77.14335L242.57527,77.22952L242.57527,107.44654L242.58963,108.15745L242.61835,108.89707L242.6758,109.61516L242.75479,110.32606L242.85532,111.02261L242.97739,111.70479L243.12819,112.40851L243.30771,113.11223L243.51596,113.80878L243.75293,114.48378L244.01144,115.14441L244.29867,115.79069L244.62181,116.45133L244.97367,117.09761L245.33989,117.71516L245.73484,118.31117L246.13697,118.87846L246.575,119.43856L247.04894,119.98431L247.54441,120.50851L248.06144,121.00399L248.60718,121.47074L249.16729,121.90878L249.75612,122.33245L250.35213,122.73457L250.95532,123.11516L251.57287,123.48138L252.19761,123.81888L252.8367,124.14202L253.49016,124.44362L254.1508,124.72367L254.81862,124.98218L255.49362,125.21915L256.18298,125.43457L256.87952,125.62846L257.57606,125.8008L258.27261,125.9516L258.97633,126.07367L259.68005,126.1742L260.39096,126.25319L261.10904,126.31064L261.82713,126.34654L262.54521,126.3609L263.27048,126.34654L263.98856,126.31064L264.69947,126.25319L265.41037,126.1742L266.12128,126.06649L266.825,125.94441L267.52154,125.79362L268.21809,125.62128L268.90745,125.42021L269.59681,125.20479L270.27899,124.96782L270.94681,124.70931L271.60745,124.42207L272.25372,124.12048L272.89282,123.79734L273.51755,123.45984L274.13511,123.09362L274.7383,122.71303L275.33431,122.30372L275.92314,121.88005L276.48324,121.44202L277.02181,120.97527L277.53883,120.47979L278.03431,119.95559L278.50824,119.40266L278.9391,118.84973L279.3484,118.27527L279.73617,117.67926L280.10239,117.05452L280.44707,116.40824L280.77021,115.74761L281.05745,115.10133L281.31596,114.44069L281.54574,113.76569L281.75399,113.07633L281.93351,112.36543L282.08431,111.6617L282.20638,110.97952L282.30691,110.28298L282.37872,109.57207L282.43617,108.85399L282.46489,108.11436L282.47926,107.43218L282.47926,77.19362L281.93351,77.14335L276.15293,77.14335L276.15293,107.26702L276.14574,107.97793L276.11702,108.71755L276.05957,109.42846L275.9734,110.125L275.84415,110.82154L275.67899,111.53245L275.47074,112.22181L275.23378,112.88245L274.94654,113.5359L274.61622,114.175L274.24282,114.79255L273.83351,115.3742L273.3883,115.92713L272.90718,116.45133L272.38298,116.95399L271.82287,117.42793L271.2484,117.86596L270.65957,118.26809L270.05638,118.64149L269.43165,118.99335L268.78537,119.30213L268.12473,119.58218L267.44973,119.82633L266.76755,120.03457L266.07101,120.20691L265.36729,120.35053L264.66356,120.45824L263.95984,120.53005L263.24176,120.57314L262.50213,120.5875L261.76968,120.57314L261.0516,120.52287L260.34787,120.45106L259.64415,120.34335L258.94043,120.19973L258.24388,120.02021L257.5617,119.81197L256.89388,119.56782L256.23324,119.28777L255.58697,118.97181L254.96223,118.61995L254.35904,118.24654L253.77021,117.83723L253.19574,117.3992L252.64282,116.92527L252.11862,116.42261L251.6375,115.8984L251.19229,115.3383L250.78298,114.75665L250.41676,114.1391L250.08644,113.5L249.80638,112.84654L249.56941,112.17872L249.36835,111.48936L249.20319,110.77846L249.07394,110.08191L248.98777,109.38537L248.93032,108.66729L248.9016,107.93484L248.9016,77.75372L248.89441,77.14335z M146.05027,77.14335L145.54043,77.22952L145.54043,107.44654L145.55479,108.15745L145.58351,108.89707L145.64096,109.61516L145.71995,110.32606L145.82048,111.02261L145.94255,111.70479L146.09335,112.40851L146.28005,113.11223L146.48112,113.80878L146.71809,114.48378L146.9766,115.14441L147.26383,115.79069L147.59415,116.45133L147.93883,117.09761L148.30505,117.71516L148.7,118.31117L149.10213,118.87846L149.54016,119.43856L150.0141,119.98431L150.50957,120.50851L151.0266,121.00399L151.57234,121.47074L152.13245,121.90878L152.72128,122.33245L153.31729,122.73457L153.92048,123.11516L154.53803,123.48138L155.16277,123.81888L155.80186,124.14202L156.45532,124.44362L157.11596,124.72367L157.78378,124.98218L158.45878,125.21915L159.14814,125.43457L159.84468,125.62846L160.54122,125.8008L161.23777,125.9516L161.94149,126.07367L162.65239,126.1742L163.3633,126.25319L164.0742,126.31064L164.79229,126.34654L165.51037,126.3609L166.23564,126.34654L166.95372,126.31064L167.66463,126.25319L168.37553,126.1742L169.08644,126.06649L169.79016,125.94441L170.4867,125.79362L171.18324,125.62128L171.87261,125.42021L172.56197,125.20479L173.24415,124.96782L173.91197,124.70931L174.57261,124.42207L175.21888,124.12048L175.85798,123.79734L176.48271,123.45984L177.10027,123.09362L177.70346,122.71303L178.29947,122.30372L178.8883,121.88005L179.4484,121.44202L179.98697,120.97527L180.50399,120.47979L180.99947,119.95559L181.4734,119.40266L181.90426,118.84973L182.31356,118.27527L182.70133,117.67926L183.06755,117.05452L183.41223,116.40824L183.73537,115.74761L184.02261,115.10133L184.28112,114.44069L184.5109,113.76569L184.71915,113.07633L184.89867,112.36543L185.04947,111.6617L185.17154,110.97952L185.27207,110.28298L185.35106,109.57207L185.40133,108.85399L185.43005,108.11436L185.44441,107.43218L185.44441,77.19362L184.89867,77.14335L179.11809,77.14335L179.11809,107.26702L179.1109,107.97793L179.08218,108.71755L179.02473,109.42846L178.93856,110.125L178.80931,110.82154L178.64415,111.53245L178.4359,112.22181L178.19894,112.88245L177.9117,113.5359L177.58138,114.175L177.20798,114.79255L176.79867,115.3742L176.35346,115.92713L175.87234,116.45133L175.34814,116.95399L174.78803,117.42793L174.21356,117.86596L173.62473,118.26809L173.02154,118.64149L172.39681,118.99335L171.75053,119.30213L171.08989,119.58218L170.41489,119.82633L169.73271,120.03457L169.04335,120.20691L168.33245,120.35053L167.62872,120.45824L166.925,120.53005L166.20691,120.57314L165.46729,120.5875L164.73484,120.57314L164.01676,120.52287L163.31303,120.45106L162.60931,120.34335L161.90559,120.19973L161.20904,120.02021L160.52686,119.81197L159.85904,119.56782L159.1984,119.28777L158.55213,118.97181L157.92739,118.61995L157.3242,118.24654L156.73537,117.83723L156.1609,117.3992L155.60798,116.92527L155.08378,116.42261L154.60266,115.8984L154.15745,115.3383L153.74814,114.75665L153.38191,114.1391L153.05878,113.5L152.77154,112.84654L152.53457,112.17872L152.33351,111.48936L152.16835,110.77846L152.0391,110.08191L151.95293,109.38537L151.89548,108.66729L151.87394,107.93484L151.86676,107.23112L151.86676,77.75372L151.85957,77.14335z M295.67766,77.14335L295.61303,77.69628L295.61303,125.66436L328.65213,125.66436L329.25532,125.65L329.25532,119.82633L328.73112,119.75452L302.11888,119.75452L301.93936,119.30213L301.93936,104.93324L301.96809,104.32287L326.4117,104.32287L326.75638,103.99973L326.75638,98.92287L326.64867,98.41303L302.2266,98.41303L301.93936,98.03245L301.93936,83.65638L301.97527,83.05319L329.25532,83.05319L329.25532,77.27261L328.75984,77.14335z M198.65,77.14335L198.57819,77.69628L198.57819,125.66436L231.61729,125.66436L232.22048,125.65L232.22048,119.82633L231.69628,119.75452L205.08404,119.75452L204.90452,119.30213L204.90452,104.93324L204.93324,104.32287L229.37686,104.32287L229.72154,103.99973L229.72154,98.92287L229.61383,98.41303L205.19176,98.41303L204.90452,98.03245L204.90452,83.65638L204.94043,83.05319L232.22048,83.05319L232.22048,77.27261L231.725,77.14335z M103.45346,69.38085L104.17872,69.41676L104.90399,69.45984L105.61489,69.53165L106.31144,69.61064L107.0008,69.71117L107.68298,69.82606L108.40824,69.96968L109.11915,70.13484L109.81569,70.31436L110.49787,70.52261L111.16569,70.74521L111.82633,70.98218L112.48697,71.25505L113.14761,71.54947L113.7867,71.86543L114.41862,72.20293L115.03617,72.56197L115.63936,72.94255L116.22819,73.3375L116.80266,73.76117L117.35559,74.1992L117.90133,74.66596L118.43271,75.14707L118.94973,75.64973L119.45239,76.17394L119.93351,76.7125L120.40027,77.26543L120.84548,77.83271L121.27633,78.4L121.68564,78.98883L122.0734,79.58484L122.44681,80.18803L122.79867,80.80559L123.13617,81.4375L123.45213,82.0766L123.74654,82.73005L124.0266,83.39069L124.28511,84.06569L124.52207,84.73351L124.7375,85.40851L124.93138,86.09069L125.1109,86.78005L125.27606,87.48378L125.41968,88.19468L125.54894,88.91277L125.65665,89.60213L125.74282,90.29867L125.81463,91.00239L125.87207,91.7133L125.91516,92.43138L125.94388,93.16383L125.95824,93.89628L125.95106,94.64309L125.9367,95.37553L125.9008,96.1008L125.85053,96.81888L125.7859,97.52979L125.70691,98.22633L125.61356,98.91569L125.49867,99.61941L125.36941,100.3375L125.21144,101.0484L125.04628,101.74495L124.85957,102.43431L124.65133,103.10931L124.4359,103.77713L124.18457,104.45213L123.91888,105.11995L123.63165,105.78059L123.33005,106.42686L123.00691,107.05878L122.66223,107.68351L122.30319,108.30106L121.92261,108.90426L121.52766,109.49309L121.11117,110.07473L120.67314,110.64202L120.22074,111.20213L119.74681,111.74787L119.25851,112.28644L118.74867,112.80346L118.22447,113.29894L117.69309,113.77287L117.14016,114.22527L116.58005,114.65612L116.00559,115.07261L115.40957,115.46755L114.7992,115.83378L114.17447,116.18564L113.54255,116.51596L112.8891,116.82473L112.22128,117.11197L111.575,117.3633L110.90718,117.60027L110.23218,117.81569L109.54282,118.00957L108.8391,118.1891L108.12819,118.33989L107.41729,118.47633L106.73511,118.58404L106.03856,118.67739L105.33484,118.7492L104.62394,118.81383L103.89867,118.84973L103.15904,118.87846L102.41223,118.88564L101.66543,118.87846L100.93298,118.84973L100.20771,118.80665L99.48963,118.7492L98.79309,118.67739L98.09654,118.58404L97.41436,118.47633L96.70346,118.33989L95.98537,118.18191L95.28883,118.00957L94.59947,117.81569L93.92447,117.60027L93.25665,117.3633L92.61037,117.10479L91.94255,116.81755L91.29628,116.50878L90.65718,116.17846L90.03245,115.8266L89.42926,115.45319L88.83324,115.05824L88.25878,114.64176L87.69867,114.2109L87.15293,113.75133L86.61436,113.27739L86.09734,112.77473L85.59468,112.25771L85.09202,111.71197L84.59654,111.1375L84.12261,110.57739L83.66303,110.01729L83.23218,109.46436L82.81569,108.91862L82.41356,108.35851L81.98271,107.74096L81.58059,107.1234L81.21436,106.51303L80.86968,105.90984L80.55372,105.31383L80.2234,104.63883L79.92899,103.96383L79.67766,103.29601L79.46223,102.64255L79.27553,101.96037L79.12473,101.24229L79.0242,100.53138L78.97394,99.83484L78.96676,99.08803L78.96676,94.12606L78.97394,93.38644L78.99548,92.65399L79.03856,91.92872L79.08883,91.21782L79.15346,90.50691L79.23963,89.81037L79.34016,89.12819L79.45505,88.41011L79.59867,87.6992L79.74947,86.9883L79.92899,86.29894L80.11569,85.60957L80.32394,84.94176L80.55372,84.27394L80.80505,83.59176L81.07793,82.93112L81.36516,82.27048L81.67394,81.6242L81.99707,80.99229L82.34176,80.37473L82.70798,79.75718L83.09574,79.16117L83.49787,78.57234L83.91436,77.99069L84.35239,77.4234L84.81197,76.87048L85.29309,76.32473L85.78856,75.79335L86.2984,75.27633L86.82261,74.78803L87.36117,74.32128L87.9141,73.87606L88.48138,73.44521L89.06303,73.04309L89.65904,72.65532L90.2766,72.2891L90.90133,71.94441L91.54761,71.62128L92.20106,71.31968L92.8617,71.04681L93.51516,70.79548L94.18298,70.57287L94.86516,70.36463L95.5617,70.17074L96.26543,70.00559L96.98351,69.85479L97.68005,69.73271L98.36223,69.63218L99.05878,69.54601L99.76968,69.4742L100.48777,69.42394L101.22021,69.38803L101.95984,69.37367L102.70665,69.36649z"></path>
</g>
</svg>